<?xml version="1.0" encoding="utf-8"?>
<!-- Svg Vector Icons : http://www.onlinewebfonts.com/icon -->
<!DOCTYPE svg PUBLIC "-//W3C//DTD SVG 1.1//EN" "http://www.w3.org/Graphics/SVG/1.1/DTD/svg11.dtd">
<svg version="1.1" xmlns="http://www.w3.org/2000/svg" xmlns:xlink="http://www.w3.org/1999/xlink" x="0px" y="0px" viewBox="0 0 1000 1000" enable-background="new 0 0 1000 1000" xml:space="preserve">
<metadata> Svg Vector Icons : http://www.onlinewebfonts.com/icon </metadata>
<g>
<path fill="#555" d="M236.9,726.6"/>
<path fill="#555" d="M365.4,804.4c-50.5,0-91.4,40.9-91.4,91.4c0,50.5,40.9,91.4,91.4,91.4s91.4-40.9,91.4-91.4C456.8,845.3,415.9,804.4,365.4,804.4z M365.4,952.3c-31.2,0-56.6-25.3-56.6-56.6c0-31.2,25.3-56.6,56.6-56.6s56.6,25.3,56.6,56.6C422,927,396.7,952.3,365.4,952.3z" />
<path fill="#555" d="M813.1,804.4c-50.5,0-91.4,40.9-91.4,91.4c0,50.5,40.9,91.4,91.4,91.4s91.4-40.9,91.4-91.4C904.5,845.3,863.6,804.4,813.1,804.4z M813.1,952.3c-31.2,0-56.6-25.3-56.6-56.6c0-31.2,25.3-56.6,56.6-56.6c31.2,0,56.6,25.3,56.6,56.6C869.7,927,844.4,952.3,813.1,952.3z"/>
<path fill="#555" d="M924,125.9c-219.2,0-452.7,0-671.9-0.5c-50-0.1-49.6,10.1-62-60.5c-3.7-21.1-6.7-46.3-39.4-51.1c-43.6,0-66.1,2.2-109.5-0.8c-7.1-0.5-8,0.5-13,0.5c-24.4,0-24.8,41.9,1,41.9c36,0,82.5-0.2,85.4-0.1c19.8,0.5,31.9,7.9,34.7,22.1c2.6,13.6,4.9,27,7.6,40C229.5,466,228.6,591,239.8,665c1.7,11.3,12.1,63.4,54.4,63.4c189.5-1.3,379.1-0.6,568.6-0.6c6.8,0,13.7,0.1,20.4-0.3c13.2-0.8,25.2-3.4,24.7-19.6c-0.5-15.1-11.5-13.5-24.8-14.6c-9.5-0.8-19.1-0.3-28.6-0.3c-152.7,0-305.4,0-458.2,0c-122.5,0-111.8-0.3-127.5-113.8c-4.6-33,9.9-37.2,36.2-37.1c169.1,1,338.2,0.2,507.3,0.2c98.6,0,94.5,2.5,114.2-92.6c19.9-96.6,36.3-181.9,60.9-283C994,138.9,993.3,125.9,924,125.9z M943.3,199.6c-21.7,92.4-40.1,185.7-58.6,278.8c-3.7,18.7-12.3,24.7-30.2,24.7c-188.2-0.2-376.4-0.1-564.7,0.2c-15.6,0-24.9-4.2-27.4-22.2c-12.9-91.5-26.1-182.9-41.2-274c-4.9-29.7,0.4-39.2,33.1-38.5c109.1,2.3,218.2,0.9,327.3,0.9c111.8,0,223.7,0.5,335.5-0.4C941,168.8,950,170.9,943.3,199.6z "/></g>
</svg>